<svg width="50" height="50" viewBox="0 0 50 50" fill="none" xmlns="http://www.w3.org/2000/svg">
<g id="send_money">
<mask id="mask0_86_67" style="mask-type:alpha" maskUnits="userSpaceOnUse" x="0" y="0" width="50" height="50">
<rect id="Bounding box" width="50" height="50" fill="#D9D9D9"/>
</mask>
<g mask="url(#mask0_86_67)">
<path id="send_money_2" d="M12.5 41.1458C8.88889 40.2083 5.90278 38.2639 3.54167 35.3125C1.18056 32.3611 0 28.9236 0 25C0 21.0764 1.18056 17.6389 3.54167 14.6875C5.90278 11.7361 8.88889 9.79168 12.5 8.85418V13.2292C10.0347 14.0625 8.02951 15.5556 6.48437 17.7083C4.93924 19.8611 4.16667 22.2917 4.16667 25C4.16667 27.7083 4.93924 30.1389 6.48437 32.2917C8.02951 34.4445 10.0347 35.9375 12.5 36.7708V41.1458ZM29.1667 41.6667C24.5486 41.6667 20.6163 40.0434 17.3698 36.7969C14.1233 33.5504 12.5 29.6181 12.5 25C12.5 20.382 14.1233 16.4497 17.3698 13.2031C20.6163 9.95661 24.5486 8.33334 29.1667 8.33334C31.4583 8.33334 33.6111 8.76737 35.625 9.63543C37.6389 10.5035 39.4097 11.7014 40.9375 13.2292L38.0208 16.1458C36.875 15 35.5469 14.1059 34.0365 13.4636C32.526 12.8212 30.9028 12.5 29.1667 12.5C25.6944 12.5 22.7431 13.7153 20.3125 16.1458C17.8819 18.5764 16.6667 21.5278 16.6667 25C16.6667 28.4722 17.8819 31.4236 20.3125 33.8542C22.7431 36.2847 25.6944 37.5 29.1667 37.5C30.9028 37.5 32.526 37.1788 34.0365 36.5365C35.5469 35.8941 36.875 35 38.0208 33.8542L40.9375 36.7708C39.4097 38.2986 37.6389 39.4965 35.625 40.3646C33.6111 41.2326 31.4583 41.6667 29.1667 41.6667ZM41.6667 33.3333L38.75 30.4167L42.0833 27.0833H27.0833V22.9167H42.0833L38.75 19.5833L41.6667 16.6667L50 25L41.6667 33.3333Z" fill="#1C1B1F"/>
</g>
</g>
</svg>
